<mxfile host="app.diagrams.net" agent="Mozilla/5.0 (Windows NT 10.0; Win64; x64) AppleWebKit/537.36 (KHTML, like Gecko) Chrome/127.0.0.0 Safari/537.36" version="26.0.16">
  <diagram name="Page-1" id="-mf2s9ZHRoCTDulDVU62">
    <mxGraphModel dx="712" dy="787" grid="1" gridSize="10" guides="1" tooltips="1" connect="1" arrows="1" fold="1" page="1" pageScale="1" pageWidth="850" pageHeight="1100" math="0" shadow="0">
      <root>
        <mxCell id="0" />
        <mxCell id="1" parent="0" />
        <mxCell id="9zkMLOiBc_-rQIEnzTNN-1" value="&lt;b&gt;&lt;font style=&quot;font-size: 18px;&quot;&gt;Functional Requirements&lt;/font&gt;&lt;/b&gt;" style="swimlane;fontStyle=0;childLayout=stackLayout;horizontal=1;startSize=30;horizontalStack=0;resizeParent=1;resizeParentMax=0;resizeLast=0;collapsible=1;marginBottom=0;whiteSpace=wrap;html=1;" parent="1" vertex="1">
          <mxGeometry x="30" y="30" width="820" height="170" as="geometry" />
        </mxCell>
        <mxCell id="9zkMLOiBc_-rQIEnzTNN-2" value="&lt;ol style=&quot;box-sizing: inherit; margin: 0px; padding: 0px; color: rgb(29, 28, 29); font-family: Slack-Lato, Slack-Fractions, appleLogo, sans-serif; font-size: 15px; font-variant-ligatures: common-ligatures; background-color: rgb(248, 248, 248);&quot; data-border=&quot;0&quot; data-indent=&quot;0&quot; class=&quot;p-rich_text_list p-rich_text_list__ordered p-rich_text_list--nested&quot; data-list-tree=&quot;true&quot; data-stringify-type=&quot;ordered-list&quot;&gt;&lt;li style=&quot;box-sizing: inherit; margin-bottom: 0px; margin-left: 28px; list-style-type: unset; margin-inline-start: 20px; padding-inline-start: 8px;&quot; data-stringify-border=&quot;0&quot; data-stringify-indent=&quot;0&quot;&gt;As an authenticated user(Admin), I can view a list of my client appointments/bookings&lt;/li&gt;&lt;li style=&quot;box-sizing: inherit; margin-bottom: 0px; margin-left: 28px; list-style-type: unset; margin-inline-start: 20px; padding-inline-start: 8px;&quot; data-stringify-border=&quot;0&quot; data-stringify-indent=&quot;0&quot;&gt;As an authenticated user(logged in as a User), I can create a booking/appointment&lt;/li&gt;&lt;li style=&quot;box-sizing: inherit; margin-bottom: 0px; margin-left: 28px; list-style-type: unset; margin-inline-start: 20px; padding-inline-start: 8px;&quot; data-stringify-border=&quot;0&quot; data-stringify-indent=&quot;0&quot;&gt;As an authenticated user(logged in as a User), I can update my existing booking/appointment&lt;/li&gt;&lt;li style=&quot;box-sizing: inherit; margin-bottom: 0px; margin-left: 28px; list-style-type: unset; margin-inline-start: 20px; padding-inline-start: 8px;&quot; data-stringify-border=&quot;0&quot; data-stringify-indent=&quot;0&quot;&gt;As an authenticated user(logged in as a User), I can delete my existing booking/appointment&lt;/li&gt;&lt;li style=&quot;box-sizing: inherit; margin-bottom: 0px; margin-left: 28px; list-style-type: unset; margin-inline-start: 20px; padding-inline-start: 8px;&quot; data-stringify-border=&quot;0&quot; data-stringify-indent=&quot;0&quot;&gt;As an unauthenticated user, I can view the stylists availability&lt;/li&gt;&lt;li style=&quot;box-sizing: inherit; margin-bottom: 0px; margin-left: 28px; list-style-type: unset; margin-inline-start: 20px; padding-inline-start: 8px;&quot; data-stringify-border=&quot;0&quot; data-stringify-indent=&quot;0&quot;&gt;As an authenticaed user(logged in as a User), I can view my own appointment(s)/bookings&lt;/li&gt;&lt;/ol&gt;" style="text;strokeColor=none;fillColor=none;align=left;verticalAlign=middle;spacingLeft=4;spacingRight=4;overflow=hidden;points=[[0,0.5],[1,0.5]];portConstraint=eastwest;rotatable=0;whiteSpace=wrap;html=1;" parent="9zkMLOiBc_-rQIEnzTNN-1" vertex="1">
          <mxGeometry y="30" width="820" height="140" as="geometry" />
        </mxCell>
        <mxCell id="9zkMLOiBc_-rQIEnzTNN-16" value="Service" style="swimlane;fontStyle=1;align=center;verticalAlign=top;childLayout=stackLayout;horizontal=1;startSize=26;horizontalStack=0;resizeParent=1;resizeParentMax=0;resizeLast=0;collapsible=1;marginBottom=0;whiteSpace=wrap;html=1;" parent="1" vertex="1">
          <mxGeometry x="60" y="370" width="160" height="190" as="geometry" />
        </mxCell>
        <mxCell id="9zkMLOiBc_-rQIEnzTNN-17" value="+int service_id" style="text;strokeColor=none;fillColor=none;align=left;verticalAlign=top;spacingLeft=4;spacingRight=4;overflow=hidden;rotatable=0;points=[[0,0.5],[1,0.5]];portConstraint=eastwest;whiteSpace=wrap;html=1;" parent="9zkMLOiBc_-rQIEnzTNN-16" vertex="1">
          <mxGeometry y="26" width="160" height="26" as="geometry" />
        </mxCell>
        <mxCell id="9zkMLOiBc_-rQIEnzTNN-18" value="+String service_name" style="text;strokeColor=none;fillColor=none;align=left;verticalAlign=top;spacingLeft=4;spacingRight=4;overflow=hidden;rotatable=0;points=[[0,0.5],[1,0.5]];portConstraint=eastwest;whiteSpace=wrap;html=1;" parent="9zkMLOiBc_-rQIEnzTNN-16" vertex="1">
          <mxGeometry y="52" width="160" height="26" as="geometry" />
        </mxCell>
        <mxCell id="9zkMLOiBc_-rQIEnzTNN-19" value="+String description" style="text;strokeColor=none;fillColor=none;align=left;verticalAlign=top;spacingLeft=4;spacingRight=4;overflow=hidden;rotatable=0;points=[[0,0.5],[1,0.5]];portConstraint=eastwest;whiteSpace=wrap;html=1;" parent="9zkMLOiBc_-rQIEnzTNN-16" vertex="1">
          <mxGeometry y="78" width="160" height="26" as="geometry" />
        </mxCell>
        <mxCell id="9zkMLOiBc_-rQIEnzTNN-43" value="+int cost" style="text;strokeColor=none;fillColor=none;align=left;verticalAlign=top;spacingLeft=4;spacingRight=4;overflow=hidden;rotatable=0;points=[[0,0.5],[1,0.5]];portConstraint=eastwest;whiteSpace=wrap;html=1;" parent="9zkMLOiBc_-rQIEnzTNN-16" vertex="1">
          <mxGeometry y="104" width="160" height="26" as="geometry" />
        </mxCell>
        <mxCell id="9zkMLOiBc_-rQIEnzTNN-44" value="+int length_minutes" style="text;strokeColor=none;fillColor=none;align=left;verticalAlign=top;spacingLeft=4;spacingRight=4;overflow=hidden;rotatable=0;points=[[0,0.5],[1,0.5]];portConstraint=eastwest;whiteSpace=wrap;html=1;" parent="9zkMLOiBc_-rQIEnzTNN-16" vertex="1">
          <mxGeometry y="130" width="160" height="26" as="geometry" />
        </mxCell>
        <mxCell id="9zkMLOiBc_-rQIEnzTNN-20" value="" style="line;strokeWidth=1;fillColor=none;align=left;verticalAlign=middle;spacingTop=-1;spacingLeft=3;spacingRight=3;rotatable=0;labelPosition=right;points=[];portConstraint=eastwest;strokeColor=inherit;" parent="9zkMLOiBc_-rQIEnzTNN-16" vertex="1">
          <mxGeometry y="156" width="160" height="8" as="geometry" />
        </mxCell>
        <mxCell id="9zkMLOiBc_-rQIEnzTNN-22" value="getters and setters" style="text;strokeColor=none;fillColor=none;align=left;verticalAlign=top;spacingLeft=4;spacingRight=4;overflow=hidden;rotatable=0;points=[[0,0.5],[1,0.5]];portConstraint=eastwest;whiteSpace=wrap;html=1;" parent="9zkMLOiBc_-rQIEnzTNN-16" vertex="1">
          <mxGeometry y="164" width="160" height="26" as="geometry" />
        </mxCell>
        <mxCell id="9zkMLOiBc_-rQIEnzTNN-24" value="Booking" style="swimlane;fontStyle=1;align=center;verticalAlign=top;childLayout=stackLayout;horizontal=1;startSize=26;horizontalStack=0;resizeParent=1;resizeParentMax=0;resizeLast=0;collapsible=1;marginBottom=0;whiteSpace=wrap;html=1;" parent="1" vertex="1">
          <mxGeometry x="310" y="370" width="200" height="190" as="geometry" />
        </mxCell>
        <mxCell id="9zkMLOiBc_-rQIEnzTNN-25" value="+int booking_id" style="text;strokeColor=none;fillColor=none;align=left;verticalAlign=top;spacingLeft=4;spacingRight=4;overflow=hidden;rotatable=0;points=[[0,0.5],[1,0.5]];portConstraint=eastwest;whiteSpace=wrap;html=1;" parent="9zkMLOiBc_-rQIEnzTNN-24" vertex="1">
          <mxGeometry y="26" width="200" height="26" as="geometry" />
        </mxCell>
        <mxCell id="9zkMLOiBc_-rQIEnzTNN-26" value="+int client_id" style="text;strokeColor=none;fillColor=none;align=left;verticalAlign=top;spacingLeft=4;spacingRight=4;overflow=hidden;rotatable=0;points=[[0,0.5],[1,0.5]];portConstraint=eastwest;whiteSpace=wrap;html=1;" parent="9zkMLOiBc_-rQIEnzTNN-24" vertex="1">
          <mxGeometry y="52" width="200" height="26" as="geometry" />
        </mxCell>
        <mxCell id="9zkMLOiBc_-rQIEnzTNN-27" value="+int service_id" style="text;strokeColor=none;fillColor=none;align=left;verticalAlign=top;spacingLeft=4;spacingRight=4;overflow=hidden;rotatable=0;points=[[0,0.5],[1,0.5]];portConstraint=eastwest;whiteSpace=wrap;html=1;" parent="9zkMLOiBc_-rQIEnzTNN-24" vertex="1">
          <mxGeometry y="78" width="200" height="26" as="geometry" />
        </mxCell>
        <mxCell id="9zkMLOiBc_-rQIEnzTNN-41" value="+LocalDate appointment_date" style="text;strokeColor=none;fillColor=none;align=left;verticalAlign=top;spacingLeft=4;spacingRight=4;overflow=hidden;rotatable=0;points=[[0,0.5],[1,0.5]];portConstraint=eastwest;whiteSpace=wrap;html=1;" parent="9zkMLOiBc_-rQIEnzTNN-24" vertex="1">
          <mxGeometry y="104" width="200" height="26" as="geometry" />
        </mxCell>
        <mxCell id="9zkMLOiBc_-rQIEnzTNN-42" value="+String time" style="text;strokeColor=none;fillColor=none;align=left;verticalAlign=top;spacingLeft=4;spacingRight=4;overflow=hidden;rotatable=0;points=[[0,0.5],[1,0.5]];portConstraint=eastwest;whiteSpace=wrap;html=1;" parent="9zkMLOiBc_-rQIEnzTNN-24" vertex="1">
          <mxGeometry y="130" width="200" height="26" as="geometry" />
        </mxCell>
        <mxCell id="9zkMLOiBc_-rQIEnzTNN-28" value="" style="line;strokeWidth=1;fillColor=none;align=left;verticalAlign=middle;spacingTop=-1;spacingLeft=3;spacingRight=3;rotatable=0;labelPosition=right;points=[];portConstraint=eastwest;strokeColor=inherit;" parent="9zkMLOiBc_-rQIEnzTNN-24" vertex="1">
          <mxGeometry y="156" width="200" height="8" as="geometry" />
        </mxCell>
        <mxCell id="9zkMLOiBc_-rQIEnzTNN-29" value="getters and setters" style="text;strokeColor=none;fillColor=none;align=left;verticalAlign=top;spacingLeft=4;spacingRight=4;overflow=hidden;rotatable=0;points=[[0,0.5],[1,0.5]];portConstraint=eastwest;whiteSpace=wrap;html=1;" parent="9zkMLOiBc_-rQIEnzTNN-24" vertex="1">
          <mxGeometry y="164" width="200" height="26" as="geometry" />
        </mxCell>
        <mxCell id="9zkMLOiBc_-rQIEnzTNN-32" value="Client" style="swimlane;fontStyle=1;align=center;verticalAlign=top;childLayout=stackLayout;horizontal=1;startSize=26;horizontalStack=0;resizeParent=1;resizeParentMax=0;resizeLast=0;collapsible=1;marginBottom=0;whiteSpace=wrap;html=1;" parent="1" vertex="1">
          <mxGeometry x="610" y="370" width="160" height="164" as="geometry" />
        </mxCell>
        <mxCell id="9zkMLOiBc_-rQIEnzTNN-33" value="+String firstName" style="text;strokeColor=none;fillColor=none;align=left;verticalAlign=top;spacingLeft=4;spacingRight=4;overflow=hidden;rotatable=0;points=[[0,0.5],[1,0.5]];portConstraint=eastwest;whiteSpace=wrap;html=1;" parent="9zkMLOiBc_-rQIEnzTNN-32" vertex="1">
          <mxGeometry y="26" width="160" height="26" as="geometry" />
        </mxCell>
        <mxCell id="9zkMLOiBc_-rQIEnzTNN-34" value="+String lastName" style="text;strokeColor=none;fillColor=none;align=left;verticalAlign=top;spacingLeft=4;spacingRight=4;overflow=hidden;rotatable=0;points=[[0,0.5],[1,0.5]];portConstraint=eastwest;whiteSpace=wrap;html=1;" parent="9zkMLOiBc_-rQIEnzTNN-32" vertex="1">
          <mxGeometry y="52" width="160" height="26" as="geometry" />
        </mxCell>
        <mxCell id="9zkMLOiBc_-rQIEnzTNN-35" value="+String phoneNumber" style="text;strokeColor=none;fillColor=none;align=left;verticalAlign=top;spacingLeft=4;spacingRight=4;overflow=hidden;rotatable=0;points=[[0,0.5],[1,0.5]];portConstraint=eastwest;whiteSpace=wrap;html=1;" parent="9zkMLOiBc_-rQIEnzTNN-32" vertex="1">
          <mxGeometry y="78" width="160" height="26" as="geometry" />
        </mxCell>
        <mxCell id="9zkMLOiBc_-rQIEnzTNN-40" value="+int client_id" style="text;strokeColor=none;fillColor=none;align=left;verticalAlign=top;spacingLeft=4;spacingRight=4;overflow=hidden;rotatable=0;points=[[0,0.5],[1,0.5]];portConstraint=eastwest;whiteSpace=wrap;html=1;" parent="9zkMLOiBc_-rQIEnzTNN-32" vertex="1">
          <mxGeometry y="104" width="160" height="26" as="geometry" />
        </mxCell>
        <mxCell id="9zkMLOiBc_-rQIEnzTNN-36" value="" style="line;strokeWidth=1;fillColor=none;align=left;verticalAlign=middle;spacingTop=-1;spacingLeft=3;spacingRight=3;rotatable=0;labelPosition=right;points=[];portConstraint=eastwest;strokeColor=inherit;" parent="9zkMLOiBc_-rQIEnzTNN-32" vertex="1">
          <mxGeometry y="130" width="160" height="8" as="geometry" />
        </mxCell>
        <mxCell id="9zkMLOiBc_-rQIEnzTNN-37" value="getters and setters" style="text;strokeColor=none;fillColor=none;align=left;verticalAlign=top;spacingLeft=4;spacingRight=4;overflow=hidden;rotatable=0;points=[[0,0.5],[1,0.5]];portConstraint=eastwest;whiteSpace=wrap;html=1;" parent="9zkMLOiBc_-rQIEnzTNN-32" vertex="1">
          <mxGeometry y="138" width="160" height="26" as="geometry" />
        </mxCell>
        <mxCell id="9zkMLOiBc_-rQIEnzTNN-68" value="RestPhoneService" style="swimlane;fontStyle=1;align=center;verticalAlign=top;childLayout=stackLayout;horizontal=1;startSize=26;horizontalStack=0;resizeParent=1;resizeParentMax=0;resizeLast=0;collapsible=1;marginBottom=0;whiteSpace=wrap;html=1;" parent="1" vertex="1">
          <mxGeometry x="70" y="760" width="170" height="114" as="geometry" />
        </mxCell>
        <mxCell id="9zkMLOiBc_-rQIEnzTNN-69" value="+private String API_URL" style="text;strokeColor=none;fillColor=none;align=left;verticalAlign=top;spacingLeft=4;spacingRight=4;overflow=hidden;rotatable=0;points=[[0,0.5],[1,0.5]];portConstraint=eastwest;whiteSpace=wrap;html=1;" parent="9zkMLOiBc_-rQIEnzTNN-68" vertex="1">
          <mxGeometry y="26" width="170" height="26" as="geometry" />
        </mxCell>
        <mxCell id="9zkMLOiBc_-rQIEnzTNN-70" value="+private RestClient restClient" style="text;strokeColor=none;fillColor=none;align=left;verticalAlign=top;spacingLeft=4;spacingRight=4;overflow=hidden;rotatable=0;points=[[0,0.5],[1,0.5]];portConstraint=eastwest;whiteSpace=wrap;html=1;" parent="9zkMLOiBc_-rQIEnzTNN-68" vertex="1">
          <mxGeometry y="52" width="170" height="28" as="geometry" />
        </mxCell>
        <mxCell id="9zkMLOiBc_-rQIEnzTNN-74" value="" style="line;strokeWidth=1;fillColor=none;align=left;verticalAlign=middle;spacingTop=-1;spacingLeft=3;spacingRight=3;rotatable=0;labelPosition=right;points=[];portConstraint=eastwest;strokeColor=inherit;" parent="9zkMLOiBc_-rQIEnzTNN-68" vertex="1">
          <mxGeometry y="80" width="170" height="8" as="geometry" />
        </mxCell>
        <mxCell id="9zkMLOiBc_-rQIEnzTNN-75" value="+getValid" style="text;strokeColor=none;fillColor=none;align=left;verticalAlign=top;spacingLeft=4;spacingRight=4;overflow=hidden;rotatable=0;points=[[0,0.5],[1,0.5]];portConstraint=eastwest;whiteSpace=wrap;html=1;" parent="9zkMLOiBc_-rQIEnzTNN-68" vertex="1">
          <mxGeometry y="88" width="170" height="26" as="geometry" />
        </mxCell>
        <mxCell id="9zkMLOiBc_-rQIEnzTNN-76" value="PhoneService" style="swimlane;fontStyle=1;align=center;verticalAlign=top;childLayout=stackLayout;horizontal=1;startSize=26;horizontalStack=0;resizeParent=1;resizeParentMax=0;resizeLast=0;collapsible=1;marginBottom=0;whiteSpace=wrap;html=1;" parent="1" vertex="1">
          <mxGeometry x="370" y="800" width="160" height="52" as="geometry" />
        </mxCell>
        <mxCell id="9zkMLOiBc_-rQIEnzTNN-78" value="+getValid" style="text;strokeColor=none;fillColor=none;align=left;verticalAlign=top;spacingLeft=4;spacingRight=4;overflow=hidden;rotatable=0;points=[[0,0.5],[1,0.5]];portConstraint=eastwest;whiteSpace=wrap;html=1;" parent="9zkMLOiBc_-rQIEnzTNN-76" vertex="1">
          <mxGeometry y="26" width="160" height="26" as="geometry" />
        </mxCell>
        <mxCell id="9zkMLOiBc_-rQIEnzTNN-85" value="" style="endArrow=classic;html=1;rounded=0;entryX=-0.006;entryY=0.231;entryDx=0;entryDy=0;entryPerimeter=0;exitX=1;exitY=0.5;exitDx=0;exitDy=0;" parent="1" target="9zkMLOiBc_-rQIEnzTNN-78" edge="1">
          <mxGeometry width="50" height="50" relative="1" as="geometry">
            <mxPoint x="240" y="853" as="sourcePoint" />
            <mxPoint x="280" y="810" as="targetPoint" />
          </mxGeometry>
        </mxCell>
        <mxCell id="9zkMLOiBc_-rQIEnzTNN-86" value="Implements" style="edgeLabel;html=1;align=center;verticalAlign=middle;resizable=0;points=[];" parent="9zkMLOiBc_-rQIEnzTNN-85" vertex="1" connectable="0">
          <mxGeometry x="0.0074" y="-1" relative="1" as="geometry">
            <mxPoint as="offset" />
          </mxGeometry>
        </mxCell>
        <mxCell id="9zkMLOiBc_-rQIEnzTNN-87" value="BookingController" style="swimlane;fontStyle=1;align=center;verticalAlign=top;childLayout=stackLayout;horizontal=1;startSize=26;horizontalStack=0;resizeParent=1;resizeParentMax=0;resizeLast=0;collapsible=1;marginBottom=0;whiteSpace=wrap;html=1;" parent="1" vertex="1">
          <mxGeometry x="620" y="786" width="210" height="242" as="geometry" />
        </mxCell>
        <mxCell id="9zkMLOiBc_-rQIEnzTNN-88" value="+private BookingDao bookingDao" style="text;strokeColor=none;fillColor=none;align=left;verticalAlign=top;spacingLeft=4;spacingRight=4;overflow=hidden;rotatable=0;points=[[0,0.5],[1,0.5]];portConstraint=eastwest;whiteSpace=wrap;html=1;" parent="9zkMLOiBc_-rQIEnzTNN-87" vertex="1">
          <mxGeometry y="26" width="210" height="26" as="geometry" />
        </mxCell>
        <mxCell id="9zkMLOiBc_-rQIEnzTNN-89" value="+private PhoneService phoneService" style="text;strokeColor=none;fillColor=none;align=left;verticalAlign=top;spacingLeft=4;spacingRight=4;overflow=hidden;rotatable=0;points=[[0,0.5],[1,0.5]];portConstraint=eastwest;whiteSpace=wrap;html=1;" parent="9zkMLOiBc_-rQIEnzTNN-87" vertex="1">
          <mxGeometry y="52" width="210" height="26" as="geometry" />
        </mxCell>
        <mxCell id="9zkMLOiBc_-rQIEnzTNN-92" value="" style="line;strokeWidth=1;fillColor=none;align=left;verticalAlign=middle;spacingTop=-1;spacingLeft=3;spacingRight=3;rotatable=0;labelPosition=right;points=[];portConstraint=eastwest;strokeColor=inherit;" parent="9zkMLOiBc_-rQIEnzTNN-87" vertex="1">
          <mxGeometry y="78" width="210" height="8" as="geometry" />
        </mxCell>
        <mxCell id="9zkMLOiBc_-rQIEnzTNN-93" value="+getOneBooking" style="text;strokeColor=none;fillColor=none;align=left;verticalAlign=top;spacingLeft=4;spacingRight=4;overflow=hidden;rotatable=0;points=[[0,0.5],[1,0.5]];portConstraint=eastwest;whiteSpace=wrap;html=1;" parent="9zkMLOiBc_-rQIEnzTNN-87" vertex="1">
          <mxGeometry y="86" width="210" height="26" as="geometry" />
        </mxCell>
        <mxCell id="9a9mK0rVMZIxK3VC_8Eh-42" value="+getAllBookings" style="text;strokeColor=none;fillColor=none;align=left;verticalAlign=top;spacingLeft=4;spacingRight=4;overflow=hidden;rotatable=0;points=[[0,0.5],[1,0.5]];portConstraint=eastwest;whiteSpace=wrap;html=1;" parent="9zkMLOiBc_-rQIEnzTNN-87" vertex="1">
          <mxGeometry y="112" width="210" height="26" as="geometry" />
        </mxCell>
        <mxCell id="9a9mK0rVMZIxK3VC_8Eh-41" value="+createNewBooking" style="text;strokeColor=none;fillColor=none;align=left;verticalAlign=top;spacingLeft=4;spacingRight=4;overflow=hidden;rotatable=0;points=[[0,0.5],[1,0.5]];portConstraint=eastwest;whiteSpace=wrap;html=1;" parent="9zkMLOiBc_-rQIEnzTNN-87" vertex="1">
          <mxGeometry y="138" width="210" height="26" as="geometry" />
        </mxCell>
        <mxCell id="9a9mK0rVMZIxK3VC_8Eh-40" value="+updateBooking" style="text;strokeColor=none;fillColor=none;align=left;verticalAlign=top;spacingLeft=4;spacingRight=4;overflow=hidden;rotatable=0;points=[[0,0.5],[1,0.5]];portConstraint=eastwest;whiteSpace=wrap;html=1;" parent="9zkMLOiBc_-rQIEnzTNN-87" vertex="1">
          <mxGeometry y="164" width="210" height="26" as="geometry" />
        </mxCell>
        <mxCell id="9a9mK0rVMZIxK3VC_8Eh-43" value="+deleteBooking" style="text;strokeColor=none;fillColor=none;align=left;verticalAlign=top;spacingLeft=4;spacingRight=4;overflow=hidden;rotatable=0;points=[[0,0.5],[1,0.5]];portConstraint=eastwest;whiteSpace=wrap;html=1;" parent="9zkMLOiBc_-rQIEnzTNN-87" vertex="1">
          <mxGeometry y="190" width="210" height="26" as="geometry" />
        </mxCell>
        <mxCell id="9a9mK0rVMZIxK3VC_8Eh-44" value="+verfiyValidPhone" style="text;strokeColor=none;fillColor=none;align=left;verticalAlign=top;spacingLeft=4;spacingRight=4;overflow=hidden;rotatable=0;points=[[0,0.5],[1,0.5]];portConstraint=eastwest;whiteSpace=wrap;html=1;" parent="9zkMLOiBc_-rQIEnzTNN-87" vertex="1">
          <mxGeometry y="216" width="210" height="26" as="geometry" />
        </mxCell>
        <mxCell id="9zkMLOiBc_-rQIEnzTNN-115" value="BookingDao" style="swimlane;fontStyle=1;align=center;verticalAlign=top;childLayout=stackLayout;horizontal=1;startSize=26;horizontalStack=0;resizeParent=1;resizeParentMax=0;resizeLast=0;collapsible=1;marginBottom=0;whiteSpace=wrap;html=1;" parent="1" vertex="1">
          <mxGeometry x="1350" y="130" width="230" height="182" as="geometry" />
        </mxCell>
        <mxCell id="9zkMLOiBc_-rQIEnzTNN-121" value="+getBookings" style="text;strokeColor=none;fillColor=none;align=left;verticalAlign=top;spacingLeft=4;spacingRight=4;overflow=hidden;rotatable=0;points=[[0,0.5],[1,0.5]];portConstraint=eastwest;whiteSpace=wrap;html=1;" parent="9zkMLOiBc_-rQIEnzTNN-115" vertex="1">
          <mxGeometry y="26" width="230" height="26" as="geometry" />
        </mxCell>
        <mxCell id="9a9mK0rVMZIxK3VC_8Eh-1" value="+getBookingById" style="text;strokeColor=none;fillColor=none;align=left;verticalAlign=top;spacingLeft=4;spacingRight=4;overflow=hidden;rotatable=0;points=[[0,0.5],[1,0.5]];portConstraint=eastwest;whiteSpace=wrap;html=1;" parent="9zkMLOiBc_-rQIEnzTNN-115" vertex="1">
          <mxGeometry y="52" width="230" height="26" as="geometry" />
        </mxCell>
        <mxCell id="9a9mK0rVMZIxK3VC_8Eh-2" value="+updateBooking" style="text;strokeColor=none;fillColor=none;align=left;verticalAlign=top;spacingLeft=4;spacingRight=4;overflow=hidden;rotatable=0;points=[[0,0.5],[1,0.5]];portConstraint=eastwest;whiteSpace=wrap;html=1;" parent="9zkMLOiBc_-rQIEnzTNN-115" vertex="1">
          <mxGeometry y="78" width="230" height="26" as="geometry" />
        </mxCell>
        <mxCell id="9a9mK0rVMZIxK3VC_8Eh-3" value="+deleteBookingById" style="text;strokeColor=none;fillColor=none;align=left;verticalAlign=top;spacingLeft=4;spacingRight=4;overflow=hidden;rotatable=0;points=[[0,0.5],[1,0.5]];portConstraint=eastwest;whiteSpace=wrap;html=1;" parent="9zkMLOiBc_-rQIEnzTNN-115" vertex="1">
          <mxGeometry y="104" width="230" height="26" as="geometry" />
        </mxCell>
        <mxCell id="9a9mK0rVMZIxK3VC_8Eh-4" value="+createBooking" style="text;strokeColor=none;fillColor=none;align=left;verticalAlign=top;spacingLeft=4;spacingRight=4;overflow=hidden;rotatable=0;points=[[0,0.5],[1,0.5]];portConstraint=eastwest;whiteSpace=wrap;html=1;" parent="9zkMLOiBc_-rQIEnzTNN-115" vertex="1">
          <mxGeometry y="130" width="230" height="26" as="geometry" />
        </mxCell>
        <mxCell id="9a9mK0rVMZIxK3VC_8Eh-5" value="+mapRowToBooking" style="text;strokeColor=none;fillColor=none;align=left;verticalAlign=top;spacingLeft=4;spacingRight=4;overflow=hidden;rotatable=0;points=[[0,0.5],[1,0.5]];portConstraint=eastwest;whiteSpace=wrap;html=1;" parent="9zkMLOiBc_-rQIEnzTNN-115" vertex="1">
          <mxGeometry y="156" width="230" height="26" as="geometry" />
        </mxCell>
        <mxCell id="9zkMLOiBc_-rQIEnzTNN-122" value="ServiceDao" style="swimlane;fontStyle=1;align=center;verticalAlign=top;childLayout=stackLayout;horizontal=1;startSize=26;horizontalStack=0;resizeParent=1;resizeParentMax=0;resizeLast=0;collapsible=1;marginBottom=0;whiteSpace=wrap;html=1;" parent="1" vertex="1">
          <mxGeometry x="1350" y="389" width="220" height="176" as="geometry" />
        </mxCell>
        <mxCell id="9zkMLOiBc_-rQIEnzTNN-128" value="+getServices" style="text;strokeColor=none;fillColor=none;align=left;verticalAlign=top;spacingLeft=4;spacingRight=4;overflow=hidden;rotatable=0;points=[[0,0.5],[1,0.5]];portConstraint=eastwest;whiteSpace=wrap;html=1;" parent="9zkMLOiBc_-rQIEnzTNN-122" vertex="1">
          <mxGeometry y="26" width="220" height="30" as="geometry" />
        </mxCell>
        <mxCell id="9a9mK0rVMZIxK3VC_8Eh-6" value="+getServiceById" style="text;strokeColor=none;fillColor=none;align=left;verticalAlign=top;spacingLeft=4;spacingRight=4;overflow=hidden;rotatable=0;points=[[0,0.5],[1,0.5]];portConstraint=eastwest;whiteSpace=wrap;html=1;" parent="9zkMLOiBc_-rQIEnzTNN-122" vertex="1">
          <mxGeometry y="56" width="220" height="30" as="geometry" />
        </mxCell>
        <mxCell id="9a9mK0rVMZIxK3VC_8Eh-7" value="+updateService" style="text;strokeColor=none;fillColor=none;align=left;verticalAlign=top;spacingLeft=4;spacingRight=4;overflow=hidden;rotatable=0;points=[[0,0.5],[1,0.5]];portConstraint=eastwest;whiteSpace=wrap;html=1;" parent="9zkMLOiBc_-rQIEnzTNN-122" vertex="1">
          <mxGeometry y="86" width="220" height="30" as="geometry" />
        </mxCell>
        <mxCell id="9a9mK0rVMZIxK3VC_8Eh-8" value="+createService" style="text;strokeColor=none;fillColor=none;align=left;verticalAlign=top;spacingLeft=4;spacingRight=4;overflow=hidden;rotatable=0;points=[[0,0.5],[1,0.5]];portConstraint=eastwest;whiteSpace=wrap;html=1;" parent="9zkMLOiBc_-rQIEnzTNN-122" vertex="1">
          <mxGeometry y="116" width="220" height="30" as="geometry" />
        </mxCell>
        <mxCell id="9a9mK0rVMZIxK3VC_8Eh-9" value="+mapRowToService" style="text;strokeColor=none;fillColor=none;align=left;verticalAlign=top;spacingLeft=4;spacingRight=4;overflow=hidden;rotatable=0;points=[[0,0.5],[1,0.5]];portConstraint=eastwest;whiteSpace=wrap;html=1;" parent="9zkMLOiBc_-rQIEnzTNN-122" vertex="1">
          <mxGeometry y="146" width="220" height="30" as="geometry" />
        </mxCell>
        <mxCell id="9zkMLOiBc_-rQIEnzTNN-129" value="ClientDao" style="swimlane;fontStyle=1;align=center;verticalAlign=top;childLayout=stackLayout;horizontal=1;startSize=26;horizontalStack=0;resizeParent=1;resizeParentMax=0;resizeLast=0;collapsible=1;marginBottom=0;whiteSpace=wrap;html=1;" parent="1" vertex="1">
          <mxGeometry x="1350" y="717" width="230" height="156" as="geometry" />
        </mxCell>
        <mxCell id="9zkMLOiBc_-rQIEnzTNN-135" value="+getClients" style="text;strokeColor=none;fillColor=none;align=left;verticalAlign=top;spacingLeft=4;spacingRight=4;overflow=hidden;rotatable=0;points=[[0,0.5],[1,0.5]];portConstraint=eastwest;whiteSpace=wrap;html=1;" parent="9zkMLOiBc_-rQIEnzTNN-129" vertex="1">
          <mxGeometry y="26" width="230" height="26" as="geometry" />
        </mxCell>
        <mxCell id="9a9mK0rVMZIxK3VC_8Eh-13" value="+getClientById" style="text;strokeColor=none;fillColor=none;align=left;verticalAlign=top;spacingLeft=4;spacingRight=4;overflow=hidden;rotatable=0;points=[[0,0.5],[1,0.5]];portConstraint=eastwest;whiteSpace=wrap;html=1;" parent="9zkMLOiBc_-rQIEnzTNN-129" vertex="1">
          <mxGeometry y="52" width="230" height="26" as="geometry" />
        </mxCell>
        <mxCell id="9a9mK0rVMZIxK3VC_8Eh-12" value="+updateClient" style="text;strokeColor=none;fillColor=none;align=left;verticalAlign=top;spacingLeft=4;spacingRight=4;overflow=hidden;rotatable=0;points=[[0,0.5],[1,0.5]];portConstraint=eastwest;whiteSpace=wrap;html=1;" parent="9zkMLOiBc_-rQIEnzTNN-129" vertex="1">
          <mxGeometry y="78" width="230" height="26" as="geometry" />
        </mxCell>
        <mxCell id="9a9mK0rVMZIxK3VC_8Eh-11" value="+createClient" style="text;strokeColor=none;fillColor=none;align=left;verticalAlign=top;spacingLeft=4;spacingRight=4;overflow=hidden;rotatable=0;points=[[0,0.5],[1,0.5]];portConstraint=eastwest;whiteSpace=wrap;html=1;" parent="9zkMLOiBc_-rQIEnzTNN-129" vertex="1">
          <mxGeometry y="104" width="230" height="26" as="geometry" />
        </mxCell>
        <mxCell id="9a9mK0rVMZIxK3VC_8Eh-10" value="+mapRowToClient" style="text;strokeColor=none;fillColor=none;align=left;verticalAlign=top;spacingLeft=4;spacingRight=4;overflow=hidden;rotatable=0;points=[[0,0.5],[1,0.5]];portConstraint=eastwest;whiteSpace=wrap;html=1;" parent="9zkMLOiBc_-rQIEnzTNN-129" vertex="1">
          <mxGeometry y="130" width="230" height="26" as="geometry" />
        </mxCell>
        <mxCell id="9zkMLOiBc_-rQIEnzTNN-136" value="" style="endArrow=classic;html=1;rounded=0;entryX=0;entryY=0.5;entryDx=0;entryDy=0;exitX=0.991;exitY=0;exitDx=0;exitDy=0;exitPerimeter=0;" parent="1" source="9a9mK0rVMZIxK3VC_8Eh-20" target="9a9mK0rVMZIxK3VC_8Eh-2" edge="1">
          <mxGeometry width="50" height="50" relative="1" as="geometry">
            <mxPoint x="1280" y="255" as="sourcePoint" />
            <mxPoint x="1260" y="221" as="targetPoint" />
          </mxGeometry>
        </mxCell>
        <mxCell id="9zkMLOiBc_-rQIEnzTNN-137" value="Implements" style="edgeLabel;html=1;align=center;verticalAlign=middle;resizable=0;points=[];" parent="9zkMLOiBc_-rQIEnzTNN-136" vertex="1" connectable="0">
          <mxGeometry x="0.0907" y="2" relative="1" as="geometry">
            <mxPoint x="-8" y="-10" as="offset" />
          </mxGeometry>
        </mxCell>
        <mxCell id="9zkMLOiBc_-rQIEnzTNN-138" value="" style="endArrow=classic;html=1;rounded=0;entryX=0;entryY=0.5;entryDx=0;entryDy=0;exitX=1;exitY=0.5;exitDx=0;exitDy=0;" parent="1" source="9a9mK0rVMZIxK3VC_8Eh-28" target="9a9mK0rVMZIxK3VC_8Eh-6" edge="1">
          <mxGeometry width="50" height="50" relative="1" as="geometry">
            <mxPoint x="1150" y="450" as="sourcePoint" />
            <mxPoint x="1260" y="415" as="targetPoint" />
          </mxGeometry>
        </mxCell>
        <mxCell id="9zkMLOiBc_-rQIEnzTNN-139" value="Implements" style="edgeLabel;html=1;align=center;verticalAlign=middle;resizable=0;points=[];" parent="9zkMLOiBc_-rQIEnzTNN-138" vertex="1" connectable="0">
          <mxGeometry x="0.073" relative="1" as="geometry">
            <mxPoint as="offset" />
          </mxGeometry>
        </mxCell>
        <mxCell id="9zkMLOiBc_-rQIEnzTNN-140" value="" style="endArrow=classic;html=1;rounded=0;entryX=0;entryY=1.154;entryDx=0;entryDy=0;exitX=1;exitY=0.5;exitDx=0;exitDy=0;entryPerimeter=0;" parent="1" source="9a9mK0rVMZIxK3VC_8Eh-36" target="9zkMLOiBc_-rQIEnzTNN-135" edge="1">
          <mxGeometry width="50" height="50" relative="1" as="geometry">
            <mxPoint x="1150" y="660" as="sourcePoint" />
            <mxPoint x="1260" y="631.012" as="targetPoint" />
          </mxGeometry>
        </mxCell>
        <mxCell id="9zkMLOiBc_-rQIEnzTNN-142" value="Implements" style="edgeLabel;html=1;align=center;verticalAlign=middle;resizable=0;points=[];" parent="9zkMLOiBc_-rQIEnzTNN-140" vertex="1" connectable="0">
          <mxGeometry x="-0.1456" relative="1" as="geometry">
            <mxPoint as="offset" />
          </mxGeometry>
        </mxCell>
        <mxCell id="9zkMLOiBc_-rQIEnzTNN-143" value="services" style="rounded=1;whiteSpace=wrap;html=1;" parent="1" vertex="1">
          <mxGeometry x="240" y="660" width="120" height="60" as="geometry" />
        </mxCell>
        <mxCell id="9zkMLOiBc_-rQIEnzTNN-144" value="" style="endArrow=none;html=1;rounded=0;entryX=0.5;entryY=0;entryDx=0;entryDy=0;" parent="1" target="9zkMLOiBc_-rQIEnzTNN-76" edge="1">
          <mxGeometry width="50" height="50" relative="1" as="geometry">
            <mxPoint x="360" y="690" as="sourcePoint" />
            <mxPoint x="410" y="640" as="targetPoint" />
          </mxGeometry>
        </mxCell>
        <mxCell id="9zkMLOiBc_-rQIEnzTNN-145" value="" style="endArrow=none;html=1;rounded=0;exitX=0.5;exitY=0;exitDx=0;exitDy=0;" parent="1" source="9zkMLOiBc_-rQIEnzTNN-68" edge="1">
          <mxGeometry width="50" height="50" relative="1" as="geometry">
            <mxPoint x="190" y="740" as="sourcePoint" />
            <mxPoint x="240" y="690" as="targetPoint" />
          </mxGeometry>
        </mxCell>
        <mxCell id="9zkMLOiBc_-rQIEnzTNN-146" value="model" style="rounded=1;whiteSpace=wrap;html=1;" parent="1" vertex="1">
          <mxGeometry x="350" y="260" width="120" height="60" as="geometry" />
        </mxCell>
        <mxCell id="9zkMLOiBc_-rQIEnzTNN-147" value="" style="endArrow=none;html=1;rounded=0;exitX=0.5;exitY=0;exitDx=0;exitDy=0;" parent="1" source="9zkMLOiBc_-rQIEnzTNN-16" edge="1">
          <mxGeometry width="50" height="50" relative="1" as="geometry">
            <mxPoint x="300" y="340" as="sourcePoint" />
            <mxPoint x="350" y="290" as="targetPoint" />
          </mxGeometry>
        </mxCell>
        <mxCell id="9zkMLOiBc_-rQIEnzTNN-148" value="" style="endArrow=none;html=1;rounded=0;exitX=0.5;exitY=0;exitDx=0;exitDy=0;" parent="1" source="9zkMLOiBc_-rQIEnzTNN-24" edge="1">
          <mxGeometry width="50" height="50" relative="1" as="geometry">
            <mxPoint x="360" y="370" as="sourcePoint" />
            <mxPoint x="410" y="320" as="targetPoint" />
          </mxGeometry>
        </mxCell>
        <mxCell id="9zkMLOiBc_-rQIEnzTNN-149" value="" style="endArrow=none;html=1;rounded=0;exitX=1;exitY=0.5;exitDx=0;exitDy=0;entryX=0.5;entryY=0;entryDx=0;entryDy=0;" parent="1" source="9zkMLOiBc_-rQIEnzTNN-146" target="9zkMLOiBc_-rQIEnzTNN-32" edge="1">
          <mxGeometry width="50" height="50" relative="1" as="geometry">
            <mxPoint x="520" y="330" as="sourcePoint" />
            <mxPoint x="570" y="280" as="targetPoint" />
          </mxGeometry>
        </mxCell>
        <mxCell id="9zkMLOiBc_-rQIEnzTNN-150" value="dao" style="rounded=1;whiteSpace=wrap;html=1;" parent="1" vertex="1">
          <mxGeometry x="820" y="410" width="120" height="60" as="geometry" />
        </mxCell>
        <mxCell id="9zkMLOiBc_-rQIEnzTNN-151" value="" style="endArrow=none;html=1;rounded=0;entryX=0;entryY=0.5;entryDx=0;entryDy=0;" parent="1" target="9a9mK0rVMZIxK3VC_8Eh-28" edge="1">
          <mxGeometry width="50" height="50" relative="1" as="geometry">
            <mxPoint x="940" y="440" as="sourcePoint" />
            <mxPoint x="990" y="441" as="targetPoint" />
          </mxGeometry>
        </mxCell>
        <mxCell id="9zkMLOiBc_-rQIEnzTNN-152" value="" style="endArrow=none;html=1;rounded=0;entryX=0;entryY=0.5;entryDx=0;entryDy=0;" parent="1" target="9a9mK0rVMZIxK3VC_8Eh-19" edge="1">
          <mxGeometry width="50" height="50" relative="1" as="geometry">
            <mxPoint x="880" y="410" as="sourcePoint" />
            <mxPoint x="990" y="195" as="targetPoint" />
          </mxGeometry>
        </mxCell>
        <mxCell id="9zkMLOiBc_-rQIEnzTNN-153" value="" style="endArrow=none;html=1;rounded=0;exitX=0.5;exitY=1;exitDx=0;exitDy=0;entryX=0.5;entryY=0;entryDx=0;entryDy=0;" parent="1" source="9zkMLOiBc_-rQIEnzTNN-150" target="9a9mK0rVMZIxK3VC_8Eh-32" edge="1">
          <mxGeometry width="50" height="50" relative="1" as="geometry">
            <mxPoint x="880" y="590" as="sourcePoint" />
            <mxPoint x="1072" y="702" as="targetPoint" />
            <Array as="points">
              <mxPoint x="920" y="670" />
              <mxPoint x="1150" y="670" />
            </Array>
          </mxGeometry>
        </mxCell>
        <mxCell id="9zkMLOiBc_-rQIEnzTNN-155" value="" style="endArrow=none;html=1;rounded=0;exitX=0.457;exitY=1.154;exitDx=0;exitDy=0;exitPerimeter=0;" parent="1" source="9a9mK0rVMZIxK3VC_8Eh-10" edge="1">
          <mxGeometry width="50" height="50" relative="1" as="geometry">
            <mxPoint x="880" y="780" as="sourcePoint" />
            <mxPoint x="880" y="470" as="targetPoint" />
            <Array as="points">
              <mxPoint x="1455" y="960" />
              <mxPoint x="880" y="960" />
            </Array>
          </mxGeometry>
        </mxCell>
        <mxCell id="9zkMLOiBc_-rQIEnzTNN-156" value="" style="endArrow=none;html=1;rounded=0;exitX=1;exitY=0.5;exitDx=0;exitDy=0;entryX=0.486;entryY=1;entryDx=0;entryDy=0;entryPerimeter=0;" parent="1" source="9zkMLOiBc_-rQIEnzTNN-150" target="9a9mK0rVMZIxK3VC_8Eh-9" edge="1">
          <mxGeometry width="50" height="50" relative="1" as="geometry">
            <mxPoint x="960" y="580" as="sourcePoint" />
            <mxPoint x="1020" y="560" as="targetPoint" />
            <Array as="points">
              <mxPoint x="940" y="550" />
              <mxPoint x="1010" y="630" />
              <mxPoint x="1200" y="630" />
              <mxPoint x="1367" y="630" />
            </Array>
          </mxGeometry>
        </mxCell>
        <mxCell id="9zkMLOiBc_-rQIEnzTNN-157" value="" style="endArrow=none;html=1;rounded=0;entryX=0.478;entryY=0;entryDx=0;entryDy=0;entryPerimeter=0;" parent="1" target="9zkMLOiBc_-rQIEnzTNN-115" edge="1">
          <mxGeometry width="50" height="50" relative="1" as="geometry">
            <mxPoint x="880" y="410" as="sourcePoint" />
            <mxPoint x="930" y="360" as="targetPoint" />
            <Array as="points">
              <mxPoint x="880" y="90" />
              <mxPoint x="1460" y="90" />
            </Array>
          </mxGeometry>
        </mxCell>
        <mxCell id="9zkMLOiBc_-rQIEnzTNN-158" value="controller" style="rounded=1;whiteSpace=wrap;html=1;" parent="1" vertex="1">
          <mxGeometry x="665" y="680" width="120" height="60" as="geometry" />
        </mxCell>
        <mxCell id="9zkMLOiBc_-rQIEnzTNN-159" value="" style="endArrow=none;html=1;rounded=0;exitX=0.5;exitY=0;exitDx=0;exitDy=0;entryX=0.5;entryY=1;entryDx=0;entryDy=0;" parent="1" source="9zkMLOiBc_-rQIEnzTNN-87" target="9zkMLOiBc_-rQIEnzTNN-158" edge="1">
          <mxGeometry width="50" height="50" relative="1" as="geometry">
            <mxPoint x="670" y="796" as="sourcePoint" />
            <mxPoint x="720" y="746" as="targetPoint" />
          </mxGeometry>
        </mxCell>
        <mxCell id="9a9mK0rVMZIxK3VC_8Eh-15" value="JdbcBookingDao" style="swimlane;fontStyle=1;align=center;verticalAlign=top;childLayout=stackLayout;horizontal=1;startSize=26;horizontalStack=0;resizeParent=1;resizeParentMax=0;resizeLast=0;collapsible=1;marginBottom=0;whiteSpace=wrap;html=1;" parent="1" vertex="1">
          <mxGeometry x="1030" y="140" width="230" height="216" as="geometry" />
        </mxCell>
        <mxCell id="9a9mK0rVMZIxK3VC_8Eh-16" value="+private JdbcTemplate jdbcTemplate" style="text;strokeColor=none;fillColor=none;align=left;verticalAlign=top;spacingLeft=4;spacingRight=4;overflow=hidden;rotatable=0;points=[[0,0.5],[1,0.5]];portConstraint=eastwest;whiteSpace=wrap;html=1;" parent="9a9mK0rVMZIxK3VC_8Eh-15" vertex="1">
          <mxGeometry y="26" width="230" height="26" as="geometry" />
        </mxCell>
        <mxCell id="9a9mK0rVMZIxK3VC_8Eh-17" value="" style="line;strokeWidth=1;fillColor=none;align=left;verticalAlign=middle;spacingTop=-1;spacingLeft=3;spacingRight=3;rotatable=0;labelPosition=right;points=[];portConstraint=eastwest;strokeColor=inherit;" parent="9a9mK0rVMZIxK3VC_8Eh-15" vertex="1">
          <mxGeometry y="52" width="230" height="8" as="geometry" />
        </mxCell>
        <mxCell id="9a9mK0rVMZIxK3VC_8Eh-18" value="+getBookings" style="text;strokeColor=none;fillColor=none;align=left;verticalAlign=top;spacingLeft=4;spacingRight=4;overflow=hidden;rotatable=0;points=[[0,0.5],[1,0.5]];portConstraint=eastwest;whiteSpace=wrap;html=1;" parent="9a9mK0rVMZIxK3VC_8Eh-15" vertex="1">
          <mxGeometry y="60" width="230" height="26" as="geometry" />
        </mxCell>
        <mxCell id="9a9mK0rVMZIxK3VC_8Eh-19" value="+getBookingById" style="text;strokeColor=none;fillColor=none;align=left;verticalAlign=top;spacingLeft=4;spacingRight=4;overflow=hidden;rotatable=0;points=[[0,0.5],[1,0.5]];portConstraint=eastwest;whiteSpace=wrap;html=1;" parent="9a9mK0rVMZIxK3VC_8Eh-15" vertex="1">
          <mxGeometry y="86" width="230" height="26" as="geometry" />
        </mxCell>
        <mxCell id="9a9mK0rVMZIxK3VC_8Eh-20" value="+updateBooking" style="text;strokeColor=none;fillColor=none;align=left;verticalAlign=top;spacingLeft=4;spacingRight=4;overflow=hidden;rotatable=0;points=[[0,0.5],[1,0.5]];portConstraint=eastwest;whiteSpace=wrap;html=1;" parent="9a9mK0rVMZIxK3VC_8Eh-15" vertex="1">
          <mxGeometry y="112" width="230" height="26" as="geometry" />
        </mxCell>
        <mxCell id="9a9mK0rVMZIxK3VC_8Eh-21" value="+deleteBookingById" style="text;strokeColor=none;fillColor=none;align=left;verticalAlign=top;spacingLeft=4;spacingRight=4;overflow=hidden;rotatable=0;points=[[0,0.5],[1,0.5]];portConstraint=eastwest;whiteSpace=wrap;html=1;" parent="9a9mK0rVMZIxK3VC_8Eh-15" vertex="1">
          <mxGeometry y="138" width="230" height="26" as="geometry" />
        </mxCell>
        <mxCell id="9a9mK0rVMZIxK3VC_8Eh-22" value="+createBooking" style="text;strokeColor=none;fillColor=none;align=left;verticalAlign=top;spacingLeft=4;spacingRight=4;overflow=hidden;rotatable=0;points=[[0,0.5],[1,0.5]];portConstraint=eastwest;whiteSpace=wrap;html=1;" parent="9a9mK0rVMZIxK3VC_8Eh-15" vertex="1">
          <mxGeometry y="164" width="230" height="26" as="geometry" />
        </mxCell>
        <mxCell id="9a9mK0rVMZIxK3VC_8Eh-23" value="+mapRowToBooking" style="text;strokeColor=none;fillColor=none;align=left;verticalAlign=top;spacingLeft=4;spacingRight=4;overflow=hidden;rotatable=0;points=[[0,0.5],[1,0.5]];portConstraint=eastwest;whiteSpace=wrap;html=1;" parent="9a9mK0rVMZIxK3VC_8Eh-15" vertex="1">
          <mxGeometry y="190" width="230" height="26" as="geometry" />
        </mxCell>
        <mxCell id="9a9mK0rVMZIxK3VC_8Eh-24" value="JdbcServiceDao" style="swimlane;fontStyle=1;align=center;verticalAlign=top;childLayout=stackLayout;horizontal=1;startSize=26;horizontalStack=0;resizeParent=1;resizeParentMax=0;resizeLast=0;collapsible=1;marginBottom=0;whiteSpace=wrap;html=1;" parent="1" vertex="1">
          <mxGeometry x="1035" y="400" width="220" height="210" as="geometry" />
        </mxCell>
        <mxCell id="9a9mK0rVMZIxK3VC_8Eh-25" value="+private JdbcTemplate jdbcTemplate" style="text;strokeColor=none;fillColor=none;align=left;verticalAlign=top;spacingLeft=4;spacingRight=4;overflow=hidden;rotatable=0;points=[[0,0.5],[1,0.5]];portConstraint=eastwest;whiteSpace=wrap;html=1;" parent="9a9mK0rVMZIxK3VC_8Eh-24" vertex="1">
          <mxGeometry y="26" width="220" height="26" as="geometry" />
        </mxCell>
        <mxCell id="9a9mK0rVMZIxK3VC_8Eh-26" value="" style="line;strokeWidth=1;fillColor=none;align=left;verticalAlign=middle;spacingTop=-1;spacingLeft=3;spacingRight=3;rotatable=0;labelPosition=right;points=[];portConstraint=eastwest;strokeColor=inherit;" parent="9a9mK0rVMZIxK3VC_8Eh-24" vertex="1">
          <mxGeometry y="52" width="220" height="8" as="geometry" />
        </mxCell>
        <mxCell id="9a9mK0rVMZIxK3VC_8Eh-27" value="+getServices" style="text;strokeColor=none;fillColor=none;align=left;verticalAlign=top;spacingLeft=4;spacingRight=4;overflow=hidden;rotatable=0;points=[[0,0.5],[1,0.5]];portConstraint=eastwest;whiteSpace=wrap;html=1;" parent="9a9mK0rVMZIxK3VC_8Eh-24" vertex="1">
          <mxGeometry y="60" width="220" height="30" as="geometry" />
        </mxCell>
        <mxCell id="9a9mK0rVMZIxK3VC_8Eh-28" value="+getServiceById" style="text;strokeColor=none;fillColor=none;align=left;verticalAlign=top;spacingLeft=4;spacingRight=4;overflow=hidden;rotatable=0;points=[[0,0.5],[1,0.5]];portConstraint=eastwest;whiteSpace=wrap;html=1;" parent="9a9mK0rVMZIxK3VC_8Eh-24" vertex="1">
          <mxGeometry y="90" width="220" height="30" as="geometry" />
        </mxCell>
        <mxCell id="9a9mK0rVMZIxK3VC_8Eh-29" value="+updateService" style="text;strokeColor=none;fillColor=none;align=left;verticalAlign=top;spacingLeft=4;spacingRight=4;overflow=hidden;rotatable=0;points=[[0,0.5],[1,0.5]];portConstraint=eastwest;whiteSpace=wrap;html=1;" parent="9a9mK0rVMZIxK3VC_8Eh-24" vertex="1">
          <mxGeometry y="120" width="220" height="30" as="geometry" />
        </mxCell>
        <mxCell id="9a9mK0rVMZIxK3VC_8Eh-30" value="+createService" style="text;strokeColor=none;fillColor=none;align=left;verticalAlign=top;spacingLeft=4;spacingRight=4;overflow=hidden;rotatable=0;points=[[0,0.5],[1,0.5]];portConstraint=eastwest;whiteSpace=wrap;html=1;" parent="9a9mK0rVMZIxK3VC_8Eh-24" vertex="1">
          <mxGeometry y="150" width="220" height="30" as="geometry" />
        </mxCell>
        <mxCell id="9a9mK0rVMZIxK3VC_8Eh-31" value="+mapRowToService" style="text;strokeColor=none;fillColor=none;align=left;verticalAlign=top;spacingLeft=4;spacingRight=4;overflow=hidden;rotatable=0;points=[[0,0.5],[1,0.5]];portConstraint=eastwest;whiteSpace=wrap;html=1;" parent="9a9mK0rVMZIxK3VC_8Eh-24" vertex="1">
          <mxGeometry y="180" width="220" height="30" as="geometry" />
        </mxCell>
        <mxCell id="9a9mK0rVMZIxK3VC_8Eh-32" value="JdbcClientDao" style="swimlane;fontStyle=1;align=center;verticalAlign=top;childLayout=stackLayout;horizontal=1;startSize=26;horizontalStack=0;resizeParent=1;resizeParentMax=0;resizeLast=0;collapsible=1;marginBottom=0;whiteSpace=wrap;html=1;" parent="1" vertex="1">
          <mxGeometry x="1035" y="730" width="230" height="190" as="geometry" />
        </mxCell>
        <mxCell id="9a9mK0rVMZIxK3VC_8Eh-33" value="+private JdbcTemplate jdbcTemplate" style="text;strokeColor=none;fillColor=none;align=left;verticalAlign=top;spacingLeft=4;spacingRight=4;overflow=hidden;rotatable=0;points=[[0,0.5],[1,0.5]];portConstraint=eastwest;whiteSpace=wrap;html=1;" parent="9a9mK0rVMZIxK3VC_8Eh-32" vertex="1">
          <mxGeometry y="26" width="230" height="26" as="geometry" />
        </mxCell>
        <mxCell id="9a9mK0rVMZIxK3VC_8Eh-34" value="" style="line;strokeWidth=1;fillColor=none;align=left;verticalAlign=middle;spacingTop=-1;spacingLeft=3;spacingRight=3;rotatable=0;labelPosition=right;points=[];portConstraint=eastwest;strokeColor=inherit;" parent="9a9mK0rVMZIxK3VC_8Eh-32" vertex="1">
          <mxGeometry y="52" width="230" height="8" as="geometry" />
        </mxCell>
        <mxCell id="9a9mK0rVMZIxK3VC_8Eh-35" value="+getClients" style="text;strokeColor=none;fillColor=none;align=left;verticalAlign=top;spacingLeft=4;spacingRight=4;overflow=hidden;rotatable=0;points=[[0,0.5],[1,0.5]];portConstraint=eastwest;whiteSpace=wrap;html=1;" parent="9a9mK0rVMZIxK3VC_8Eh-32" vertex="1">
          <mxGeometry y="60" width="230" height="26" as="geometry" />
        </mxCell>
        <mxCell id="9a9mK0rVMZIxK3VC_8Eh-36" value="+getClientById" style="text;strokeColor=none;fillColor=none;align=left;verticalAlign=top;spacingLeft=4;spacingRight=4;overflow=hidden;rotatable=0;points=[[0,0.5],[1,0.5]];portConstraint=eastwest;whiteSpace=wrap;html=1;" parent="9a9mK0rVMZIxK3VC_8Eh-32" vertex="1">
          <mxGeometry y="86" width="230" height="26" as="geometry" />
        </mxCell>
        <mxCell id="9a9mK0rVMZIxK3VC_8Eh-37" value="+updateClient" style="text;strokeColor=none;fillColor=none;align=left;verticalAlign=top;spacingLeft=4;spacingRight=4;overflow=hidden;rotatable=0;points=[[0,0.5],[1,0.5]];portConstraint=eastwest;whiteSpace=wrap;html=1;" parent="9a9mK0rVMZIxK3VC_8Eh-32" vertex="1">
          <mxGeometry y="112" width="230" height="26" as="geometry" />
        </mxCell>
        <mxCell id="9a9mK0rVMZIxK3VC_8Eh-38" value="+createClient" style="text;strokeColor=none;fillColor=none;align=left;verticalAlign=top;spacingLeft=4;spacingRight=4;overflow=hidden;rotatable=0;points=[[0,0.5],[1,0.5]];portConstraint=eastwest;whiteSpace=wrap;html=1;" parent="9a9mK0rVMZIxK3VC_8Eh-32" vertex="1">
          <mxGeometry y="138" width="230" height="26" as="geometry" />
        </mxCell>
        <mxCell id="9a9mK0rVMZIxK3VC_8Eh-39" value="+mapRowToClient" style="text;strokeColor=none;fillColor=none;align=left;verticalAlign=top;spacingLeft=4;spacingRight=4;overflow=hidden;rotatable=0;points=[[0,0.5],[1,0.5]];portConstraint=eastwest;whiteSpace=wrap;html=1;" parent="9a9mK0rVMZIxK3VC_8Eh-32" vertex="1">
          <mxGeometry y="164" width="230" height="26" as="geometry" />
        </mxCell>
        <mxCell id="9a9mK0rVMZIxK3VC_8Eh-45" value="***There&#39;s a lot more methods/classes, just cant fit them all" style="rounded=0;whiteSpace=wrap;html=1;" parent="1" vertex="1">
          <mxGeometry x="240" y="920" width="120" height="60" as="geometry" />
        </mxCell>
      </root>
    </mxGraphModel>
  </diagram>
</mxfile>
